# xmcd
#
# Track frame offsets:
#	150
#	14777
#	29787
#	45847
#	68610
#	85260
#	97712
#	113127
#	130057
#	146742
#	161155
#	173620
#	183675
#	199122
#	209157
#
# Disc length: 2994 seconds
#
# Revision: 0
# Processed by: cddbd v1.5.1PL0 Copyright (c) Steve Scherf et al.
# Submitted via: dBpowerAMP V4.0
#
DISCID=d50bb00f
DTITLE=Marka - Merci d'avance
DYEAR=1995
DGENRE=Pop
TTITLE0=Accouplé
TTITLE1=La Poupée Barbu
TTITLE2=En  Amour
TTITLE3=Pour Un Flirt Avec Moi
TTITLE4=Le Collectionneur
TTITLE5=L'Hospice
TTITLE6=Je Prête à Confusion
TTITLE7=Elisa Prétend
TTITLE8=Nos Amis Les Riches
TTITLE9=Les Mondains
TTITLE10=L'An Passé
TTITLE11=La Dame Au Youki
TTITLE12=La Ballade Du Ballon Rond
TTITLE13=La Berceuse De Kiki
TTITLE14=Un Cuple S Alado
EXTD=
EXTT0=
EXTT1=
EXTT2=
EXTT3=
EXTT4=
EXTT5=
EXTT6=
EXTT7=
EXTT8=
EXTT9=
EXTT10=
EXTT11=
EXTT12=
EXTT13=
EXTT14=
PLAYORDER=
